<svg width="22" height="22" viewBox="0 0 22 22" fill="none" xmlns="http://www.w3.org/2000/svg">
<path d="M10.9134 18.03L11.0034 18.14L11.0934 18.03C13.2534 15.48 14.7934 13.74 16.6434 11.03C17.1334 10.32 17.4734 9.56 17.6334 8.72C17.9434 7.21 17.7034 5.75 16.9434 4.4C16.2334 3.13 15.1734 2.2 13.7934 1.59C12.8834 1.2 11.9534 1 10.9934 1C10.0334 1 9.11344 1.19 8.19344 1.59C6.81344 2.19 5.76344 3.13 5.04344 4.4C4.27344 5.76 4.04344 7.2 4.35344 8.72C4.52344 9.55 4.87344 10.32 5.34344 11.03C7.19344 13.74 8.73344 15.48 10.8934 18.03H10.9134Z" stroke="#17191D" stroke-width="1.3" stroke-miterlimit="10"/>
<path fill-rule="evenodd" clip-rule="evenodd" d="M13.6432 5.75825C14.2684 5.75825 14.6774 6.12098 14.7546 6.69209H16.082C15.9431 5.35692 14.9553 4.60059 13.6124 4.60059C12.1228 4.60059 10.9729 5.62705 10.9729 7.47159C10.9729 9.30841 12.0997 10.3426 13.6124 10.3426C15.125 10.3426 15.974 9.31613 16.082 8.32054L14.7546 8.31282C14.6543 8.86078 14.2375 9.18492 13.6355 9.18492C12.8329 9.18492 12.3158 8.59838 12.3158 7.47159C12.3158 6.38338 12.8174 5.75825 13.6432 5.75825ZM6.19995 4.67773V10.2654H7.51197V8.51345H8.44581C9.72696 8.51345 10.5142 7.75711 10.5142 6.59945C10.5142 5.46494 9.7424 4.67773 8.4844 4.67773H6.19995ZM8.20656 7.47156H7.51197V5.74278H8.20656C8.82398 5.74278 9.15585 6.07465 9.15585 6.59945C9.15585 7.12426 8.82398 7.47156 8.20656 7.47156Z" fill="#17191D"/>
<path d="M4.25 17.2002L4.25 20.3502H17.75V17.2002" stroke="#17191D" stroke-width="1.3"/>
</svg>
